<svg width="195" height="46" viewBox="0 0 195 46" fill="none" xmlns="http://www.w3.org/2000/svg">
<path d="M42.3835 11.7871C39.2487 11.7871 37.5092 12.867 37.1717 15.08L35.8341 23.8624C35.7321 24.535 36.0739 24.6942 36.7581 24.6942C37.4583 24.6942 37.8484 24.535 37.9512 23.8624L38.6522 19.2585H48.9638C49.4734 19.2585 49.633 18.9402 49.7299 18.3027C49.8268 17.6651 49.7642 17.346 49.2545 17.346H38.9429L39.288 15.08C39.4066 14.3013 40.2939 13.6988 42.1554 13.6988H43.8263C44.336 13.6988 44.4797 13.3805 44.5766 12.743C44.6735 12.1054 44.6267 11.7871 44.1179 11.7871H42.3835ZM63.1821 14.5494C62.4978 14.5494 62.1394 14.7086 62.0375 15.3812L61.0992 21.5425C60.9889 22.2681 60.1384 22.8355 58.3563 22.8355H54.6802C52.8981 22.8355 52.2205 22.269 52.3316 21.5425L53.2699 15.3812C53.3718 14.7086 53.0627 14.5494 52.3943 14.5494C51.71 14.5494 51.3516 14.7086 51.2497 15.3812L50.3114 21.5425C49.9956 23.6142 51.3541 24.6231 54.3451 24.6231H58.1483C61.1402 24.6231 62.8053 23.6134 63.1211 21.5425L64.0594 15.3812C64.1613 14.7086 63.8522 14.5494 63.1838 14.5494H63.1821ZM69.8627 14.6204C67.205 14.6204 65.585 15.6473 65.275 17.684L64.3342 23.8632C64.2315 24.5358 64.5414 24.695 65.2098 24.695C65.8941 24.695 66.2525 24.5358 66.3553 23.8632L67.296 17.684C67.4197 16.8693 68.0154 16.4089 69.5903 16.4089H70.831C71.3081 16.4089 71.4501 16.1077 71.5387 15.5232C71.628 14.9388 71.5804 14.6204 71.1034 14.6204H69.8627ZM72.0901 17.7011L71.5052 21.5433C71.1928 23.5971 72.5479 24.624 75.5398 24.624H79.0088C81.9998 24.624 83.6683 23.5971 83.9807 21.5433L84.5656 17.7011C84.8814 15.6293 83.5229 14.6204 80.5318 14.6204H77.0629C74.0718 14.6204 72.4059 15.6302 72.0901 17.7011ZM81.9597 21.5433C81.8519 22.2519 80.9989 22.8363 79.2168 22.8363H75.8757C74.0936 22.8363 73.4185 22.2519 73.5263 21.5433L74.1111 17.7011C74.2222 16.9754 75.0719 16.4081 76.854 16.4081H80.196C81.9781 16.4081 82.6557 16.9746 82.5454 17.7011L81.9605 21.5433H81.9597ZM90.6438 14.6204C87.9861 14.6204 86.3661 15.6473 86.0561 17.684L85.1153 23.8632C85.0134 24.5358 85.3225 24.695 85.9909 24.695C86.6752 24.695 87.0336 24.5358 87.1364 23.8632L88.0771 17.684C88.2008 16.8693 88.7965 16.4089 90.3714 16.4089H91.6121C92.09 16.4089 92.2312 16.1077 92.3197 15.5232C92.4091 14.9388 92.3615 14.6204 91.8845 14.6204H90.6438ZM100.543 12.7789L98.8282 24.0404C98.7254 24.713 99.0671 24.8721 99.7522 24.8721C100.452 24.8721 100.843 24.713 100.945 24.0404L101.519 20.2691H109.173C112.053 20.2691 114.024 19.1361 114.288 17.4007L114.679 14.8335C114.944 13.0981 113.317 11.9651 110.438 11.9651H101.415C100.906 11.9651 100.627 12.2304 100.543 12.7797V12.7789ZM109.955 13.8768C112.119 13.8768 112.649 14.3731 112.551 15.0098L112.214 17.2227C112.117 17.8603 111.436 18.3557 109.273 18.3557H101.809L102.492 13.8759H109.955V13.8768ZM120.15 14.7976C117.492 14.7976 115.872 15.8245 115.562 17.8611L114.621 24.0404C114.519 24.713 114.829 24.8721 115.497 24.8721C116.181 24.8721 116.54 24.713 116.642 24.0404L117.583 17.8611C117.707 17.0464 118.303 16.5861 119.877 16.5861H121.118C121.595 16.5861 121.736 16.2848 121.826 15.7004C121.915 15.1159 121.868 14.7976 121.391 14.7976H120.149H120.15ZM122.377 17.8782L121.792 21.7205C121.48 23.7742 122.835 24.8011 125.826 24.8011H129.295C132.287 24.8011 133.955 23.7742 134.268 21.7205L134.853 17.8782C135.169 15.8065 133.81 14.7976 130.819 14.7976H127.35C124.358 14.7976 122.693 15.8073 122.377 17.8782ZM132.247 21.7205C132.139 22.429 131.286 23.0135 129.504 23.0135H126.162C124.38 23.0135 123.705 22.429 123.813 21.7205L124.398 17.8782C124.509 17.1526 125.359 16.5852 127.141 16.5852H130.483C132.265 16.5852 132.943 17.1517 132.833 17.8782L132.248 21.7205H132.247ZM143.294 27.7055C145.951 27.7055 147.571 26.6786 147.881 24.6419L148.912 17.8782C149.224 15.8245 147.869 14.7976 144.878 14.7976H141.233C138.242 14.7976 136.574 15.8245 136.261 17.8782L135.713 21.4723C135.398 23.544 136.756 24.5529 139.747 24.5529H145.874L145.86 24.6419C145.736 25.4566 145.141 25.917 143.565 25.917H141.37C140.893 25.917 140.75 26.2182 140.662 26.8027C140.573 27.3871 140.62 27.7055 141.097 27.7055H143.293H143.294ZM140.079 22.8013C138.297 22.8013 137.619 22.2348 137.729 21.5091L138.282 17.8791C138.39 17.1705 139.243 16.5861 141.025 16.5861H144.542C146.324 16.5861 146.999 17.1705 146.891 17.8791L146.142 22.8013H140.079ZM155.07 14.7984C152.412 14.7984 150.792 15.8253 150.482 17.862L149.541 24.0412C149.44 24.7138 149.749 24.873 150.417 24.873C151.101 24.873 151.46 24.7138 151.563 24.0412L152.503 17.862C152.628 17.0473 153.223 16.5869 154.798 16.5869H156.038C156.516 16.5869 156.657 16.2857 156.746 15.7012C156.834 15.1168 156.788 14.7984 156.311 14.7984H155.07ZM168.577 20.8185C169.389 20.8185 169.564 20.6063 169.669 19.9157L169.979 17.8791C170.295 15.8073 169.128 14.7984 165.945 14.7984H162.269C159.278 14.7984 157.612 15.8082 157.296 17.8791L156.712 21.7213C156.399 23.7751 157.754 24.802 160.745 24.802H162.639C163.117 24.802 163.261 24.4836 163.35 23.8992C163.439 23.3147 163.389 23.0135 162.912 23.0135H161.082C159.3 23.0135 158.625 22.429 158.733 21.7205L158.871 20.8177H168.577V20.8185ZM159.318 17.8791C159.429 17.1534 160.279 16.5861 162.061 16.5861H165.61C167.392 16.5861 168.083 17.0644 167.959 17.8791L167.779 19.0651H159.138L159.318 17.8791ZM171.183 17.9672C170.935 19.5965 172.089 20.5883 174.65 20.5883H178.215C179.855 20.5883 180.262 20.9426 180.178 21.4911L180.081 22.1286C179.998 22.6772 179.485 23.0143 177.782 23.0143H171.034C170.557 23.0143 170.4 23.3156 170.311 23.9C170.219 24.5025 170.285 24.8028 170.762 24.8028H177.207C180.405 24.8028 181.864 23.7931 182.123 22.0936L182.209 21.5271C182.468 19.8276 181.394 18.8358 178.418 18.8358H174.901C173.628 18.8358 173.109 18.4815 173.193 17.9321L173.263 17.4717C173.347 16.9232 173.971 16.5861 175.165 16.5861H177.361C177.839 16.5861 177.996 16.2848 178.084 15.7004C178.176 15.0979 178.11 14.7976 177.633 14.7976H175.453C172.971 14.7976 171.512 15.8073 171.262 17.4538L171.184 17.9672H171.183ZM183.937 17.9672C183.689 19.5965 184.843 20.5883 187.404 20.5883H190.969C192.608 20.5883 193.015 20.9426 192.932 21.4911L192.835 22.1286C192.751 22.6772 192.238 23.0143 190.536 23.0143H183.788C183.311 23.0143 183.154 23.3156 183.065 23.9C182.973 24.5025 183.039 24.8028 183.516 24.8028H189.961C193.159 24.8028 194.618 23.7931 194.877 22.0936L194.963 21.5271C195.222 19.8276 194.147 18.8358 191.171 18.8358H187.655C186.382 18.8358 185.863 18.4815 185.947 17.9321L186.017 17.4717C186.101 16.9232 186.725 16.5861 187.919 16.5861H190.114C190.592 16.5861 190.749 16.2848 190.838 15.7004C190.93 15.0979 190.864 14.7976 190.387 14.7976H188.207C185.725 14.7976 184.266 15.8073 184.015 17.4538L183.938 17.9672H183.937Z" fill="white"/>
<path d="M35.8163 36.056L36.5711 35.9815C36.6163 36.2343 36.7075 36.4184 36.8464 36.5381C36.9845 36.657 37.1711 36.7156 37.4062 36.7156C37.6539 36.7156 37.8413 36.6629 37.9677 36.5574C38.0932 36.4519 38.1568 36.3289 38.1568 36.1882C38.1568 36.097 38.13 36.02 38.0773 35.9555C38.0246 35.8919 37.9317 35.8366 37.8003 35.7906C37.71 35.7579 37.5049 35.7027 37.1836 35.6232C36.7703 35.5194 36.4799 35.393 36.3134 35.2415C36.0791 35.0297 35.9619 34.7719 35.9619 34.4671C35.9619 34.2721 36.0172 34.0879 36.1268 33.9172C36.2372 33.7464 36.3962 33.6175 36.6046 33.5279C36.8121 33.4384 37.0623 33.394 37.3568 33.394C37.8363 33.394 38.1978 33.5003 38.4396 33.7138C38.6823 33.9272 38.8086 34.211 38.8212 34.5676L38.0447 34.5944C38.012 34.396 37.9409 34.2545 37.833 34.1675C37.725 34.0804 37.5627 34.0369 37.3468 34.0369C37.1234 34.0369 36.9485 34.0838 36.823 34.1767C36.7418 34.2369 36.7008 34.3165 36.7008 34.4161C36.7008 34.5073 36.7393 34.5852 36.8163 34.6488C36.9133 34.7317 37.1502 34.8179 37.5259 34.9075C37.9016 34.9962 38.1794 35.0891 38.3585 35.1837C38.5384 35.2791 38.6798 35.4089 38.7819 35.5738C38.8839 35.7387 38.935 35.943 38.935 36.1849C38.935 36.405 38.8739 36.611 38.7517 36.8027C38.6296 36.9952 38.4572 37.1375 38.2338 37.2304C38.0104 37.3242 37.7317 37.3702 37.3987 37.3702C36.9142 37.3702 36.5418 37.2589 36.2824 37.0345C36.0222 36.811 35.8682 36.4854 35.8172 36.0576L35.8163 36.056ZM40.9391 35.4039C40.9391 35.0129 40.9976 34.6848 41.1148 34.4178C41.2018 34.2227 41.3206 34.0461 41.4721 33.8912C41.6227 33.7355 41.7884 33.6208 41.9674 33.5447C42.2068 33.4442 42.4829 33.3931 42.795 33.3931C43.3607 33.3931 43.8125 33.5689 44.1523 33.9197C44.492 34.2713 44.661 34.7601 44.661 35.3863C44.661 36.0066 44.492 36.4929 44.1556 36.8428C43.8192 37.1936 43.3682 37.3685 42.805 37.3685C42.2344 37.3685 41.78 37.1944 41.4436 36.8454C41.1072 36.4971 40.9382 36.0166 40.9382 35.4039H40.9391ZM41.7373 35.3779C41.7373 35.8124 41.8386 36.1422 42.0394 36.3674C42.2402 36.5917 42.4954 36.7039 42.8042 36.7039C43.1138 36.7039 43.3674 36.5926 43.5665 36.3699C43.7648 36.1464 43.8636 35.8124 43.8636 35.367C43.8636 34.9267 43.7673 34.5977 43.574 34.3826C43.3816 34.1658 43.1247 34.0578 42.8042 34.0578C42.4846 34.0578 42.2268 34.1675 42.031 34.3868C41.8352 34.6061 41.7373 34.9368 41.7373 35.3787V35.3779ZM46.7738 37.2982V33.4618H49.4088V34.1097H47.5504V35.0205H49.157V35.6684H47.5504V37.2974H46.7738V37.2982ZM52.4154 37.2982V34.1105H51.2799V33.4626H54.3215V34.1105H53.191V37.2982H52.4145H52.4154ZM56.8586 37.2982L55.9574 33.4618H56.7557L57.3255 36.097L58.0259 33.4618H58.9489L59.6183 36.1414L60.2023 33.4618H60.9814L60.0576 37.2982H59.2283L58.4719 34.4303L57.7104 37.2982H56.8586ZM66.0539 37.2982H65.2171L64.8857 36.4251H63.3478L63.0289 37.2982H62.2081L63.6967 33.4618H64.5167L66.053 37.2982H66.0539ZM64.6347 35.7764L64.1017 34.3566L63.5837 35.7764H64.6347ZM67.9751 37.2982V33.4618H69.606C70.016 33.4618 70.3139 33.4969 70.4996 33.5656C70.6862 33.6342 70.8343 33.7564 70.9456 33.9331C71.0569 34.1097 71.113 34.3106 71.113 34.5375C71.113 34.8254 71.0293 35.0632 70.8603 35.2507C70.6913 35.4382 70.4394 35.5562 70.1038 35.6056C70.2704 35.7027 70.4084 35.8099 70.5164 35.9271C70.6251 36.0442 70.7716 36.2518 70.9557 36.5499L71.4234 37.2982H70.498L69.9423 36.4603C69.7432 36.1631 69.6068 35.9756 69.5332 35.8977C69.4595 35.8207 69.3826 35.7672 69.2997 35.7387C69.2169 35.7102 69.0863 35.696 68.9081 35.696H68.7508V37.2982H67.9743H67.9751ZM68.7516 35.0858H69.3248C69.6963 35.0858 69.9273 35.0698 70.0202 35.038C70.1122 35.0071 70.185 34.9527 70.2369 34.8756C70.2896 34.7986 70.3155 34.7024 70.3155 34.5877C70.3155 34.4579 70.2804 34.355 70.2118 34.2746C70.1432 34.1951 70.0461 34.1449 69.9206 34.1248C69.857 34.1156 69.6687 34.1114 69.3558 34.1114H68.7516V35.0866V35.0858ZM73.3505 37.2982V33.4618H76.1888V34.1097H74.127V34.9619H76.0441V35.6098H74.127V36.6495H76.2641V37.2974H73.3505V37.2982ZM81.4069 33.4618H82.8186C83.1374 33.4618 83.38 33.4861 83.5466 33.5346C83.7708 33.6007 83.9633 33.7188 84.1231 33.8879C84.2837 34.057 84.4051 34.2637 84.4888 34.5098C84.5716 34.7543 84.6143 35.0573 84.6143 35.4164C84.6143 35.7328 84.575 36.0041 84.4963 36.2326C84.4009 36.5122 84.2645 36.7382 84.0863 36.9098C83.9524 37.0412 83.7717 37.1425 83.5441 37.2162C83.3733 37.2706 83.1457 37.2974 82.8604 37.2974H81.4061V33.4609L81.4069 33.4618ZM82.1835 34.1097V36.6495H82.7592C82.9742 36.6495 83.1298 36.6369 83.2252 36.6126C83.3507 36.5817 83.4545 36.5273 83.5365 36.4528C83.6194 36.3774 83.6863 36.2543 83.7382 36.0827C83.7909 35.9111 83.8168 35.6768 83.8168 35.3804C83.8168 35.0841 83.7909 34.8572 83.7382 34.6982C83.6863 34.5391 83.6135 34.4161 83.5198 34.3265C83.4261 34.2378 83.3072 34.1775 83.1625 34.1465C83.0554 34.1223 82.8437 34.1097 82.5299 34.1097H82.1835ZM86.7823 37.2974V33.4609H89.6207V34.1089H87.5589V34.961H89.4759V35.6089H87.5589V36.6486H89.696V37.2965H86.7823V37.2974ZM92.8431 37.2974L91.4708 33.4609H92.3101L93.2841 36.3004L94.2187 33.4609H95.0429L93.679 37.2974H92.8431ZM96.9416 37.2974V33.4609H99.7799V34.1089H97.7181V34.961H99.6351V35.6089H97.7181V36.6486H99.8552V37.2965H96.9416V37.2974ZM102.043 37.2974V33.4936H102.819V36.6495H104.742V37.2974H102.043ZM106.64 35.4022C106.64 35.0113 106.698 34.6831 106.815 34.4161C106.902 34.221 107.021 34.0444 107.173 33.8895C107.323 33.7338 107.489 33.6192 107.668 33.543C107.907 33.4425 108.184 33.3915 108.496 33.3915C109.061 33.3915 109.513 33.5673 109.853 33.918C110.193 34.2696 110.362 34.7585 110.362 35.3846C110.362 36.0049 110.193 36.4913 109.856 36.8412C109.52 37.1919 109.069 37.3669 108.506 37.3669C107.935 37.3669 107.481 37.1927 107.144 36.8437C106.808 36.4954 106.639 36.0149 106.639 35.4022H106.64ZM107.438 35.3762C107.438 35.8107 107.539 36.1405 107.74 36.3657C107.941 36.59 108.196 36.7022 108.505 36.7022C108.815 36.7022 109.068 36.5909 109.267 36.3682C109.466 36.1447 109.564 35.8107 109.564 35.3654C109.564 34.925 109.468 34.5961 109.275 34.3809C109.082 34.1641 108.825 34.0561 108.505 34.0561C108.185 34.0561 107.928 34.1658 107.732 34.3851C107.536 34.6044 107.438 34.9351 107.438 35.3771V35.3762ZM112.475 37.2965V33.4601H113.716C114.187 33.4601 114.493 33.4785 114.635 33.517C114.855 33.5756 115.038 33.7004 115.187 33.8929C115.335 34.0854 115.409 34.3349 115.409 34.6404C115.409 34.8756 115.366 35.0732 115.281 35.2339C115.196 35.3947 115.088 35.5211 114.956 35.6123C114.825 35.7035 114.691 35.7638 114.556 35.7939C114.371 35.8308 114.104 35.8492 113.754 35.8492H113.25V37.2957H112.474L112.475 37.2965ZM113.251 34.1089V35.2021H113.674C113.978 35.2021 114.181 35.1812 114.283 35.141C114.386 35.1008 114.466 35.0389 114.524 34.9518C114.582 34.8665 114.611 34.7668 114.611 34.653C114.611 34.5132 114.57 34.3977 114.489 34.3064C114.407 34.2152 114.304 34.1583 114.178 34.1348C114.086 34.1181 113.901 34.1089 113.623 34.1089H113.251ZM117.544 37.2965V33.4601H118.707L119.394 36.0769L120.073 33.4601H121.239V37.2965H120.521L120.518 34.2763L119.762 37.2965H119.016L118.263 34.2763L118.261 37.2965H117.543H117.544ZM123.523 37.2965V33.4601H126.362V34.108H124.3V34.9602H126.217V35.6081H124.3V36.6478H126.437V37.2957H123.523V37.2965ZM128.603 37.2965V33.4601H129.355L130.933 36.0309V33.4601H131.65V37.2965H130.874L129.32 34.7744V37.2965H128.603ZM134.841 37.2965V34.1089H133.705V33.4609H136.747V34.1089H135.616V37.2965H134.84H134.841ZM144.186 35.8818L144.936 36.112C144.822 36.5348 144.629 36.8479 144.361 37.053C144.094 37.2572 143.754 37.3602 143.343 37.3602C142.833 37.3602 142.415 37.186 142.086 36.8378C141.759 36.4896 141.594 36.0133 141.594 35.4089C141.594 34.7702 141.759 34.2738 142.089 33.9205C142.418 33.5673 142.852 33.3906 143.389 33.3906C143.858 33.3906 144.24 33.5296 144.533 33.8075C144.708 33.9716 144.838 34.2076 144.925 34.5157L144.16 34.6974C144.115 34.499 144.02 34.3424 143.876 34.2269C143.731 34.1122 143.556 34.0544 143.351 34.0544C143.066 34.0544 142.834 34.1557 142.658 34.3608C142.48 34.5643 142.392 34.8949 142.392 35.352C142.392 35.8358 142.479 36.1815 142.653 36.3875C142.828 36.5934 143.055 36.6963 143.335 36.6963C143.54 36.6963 143.719 36.6311 143.866 36.4996C144.014 36.3682 144.121 36.1631 144.186 35.8818H144.186ZM146.949 35.4013C146.949 35.0104 147.007 34.6823 147.124 34.4152C147.211 34.2202 147.33 34.0436 147.482 33.8887C147.632 33.733 147.798 33.6183 147.977 33.5421C148.216 33.4417 148.492 33.3906 148.805 33.3906C149.37 33.3906 149.822 33.5664 150.162 33.9172C150.502 34.2687 150.671 34.7576 150.671 35.3838C150.671 36.0041 150.502 36.4904 150.165 36.8403C149.829 37.1911 149.378 37.366 148.815 37.366C148.244 37.366 147.79 37.1919 147.453 36.8428C147.117 36.4946 146.948 36.0141 146.948 35.4013H146.949ZM147.747 35.3754C147.747 35.8098 147.848 36.1397 148.049 36.3649C148.25 36.5892 148.505 36.7014 148.814 36.7014C149.123 36.7014 149.377 36.59 149.576 36.3674C149.774 36.1439 149.873 35.8099 149.873 35.3645C149.873 34.9242 149.777 34.5952 149.584 34.3801C149.391 34.1633 149.134 34.0553 148.814 34.0553C148.494 34.0553 148.236 34.165 148.041 34.3843C147.845 34.6036 147.747 34.9342 147.747 35.3762V35.3754ZM152.773 37.2957V33.4593H153.936L154.623 36.0761L155.302 33.4593H156.468V37.2957H155.75L155.747 34.2754L154.991 37.2957H154.244L153.492 34.2754L153.49 37.2957H152.772H152.773ZM158.752 37.2957V33.4593H159.994C160.464 33.4593 160.77 33.4777 160.913 33.5162C161.133 33.5748 161.316 33.6995 161.464 33.892C161.612 34.0846 161.687 34.334 161.687 34.6396C161.687 34.8748 161.644 35.0724 161.559 35.2331C161.473 35.3938 161.365 35.5202 161.234 35.6115C161.103 35.7027 160.969 35.763 160.833 35.7931C160.648 35.8299 160.381 35.8484 160.032 35.8484H159.528V37.2949H158.751L158.752 37.2957ZM159.529 34.108V35.2013H159.951C160.256 35.2013 160.458 35.1804 160.56 35.1402C160.663 35.1 160.744 35.0381 160.801 34.951C160.859 34.8656 160.888 34.766 160.888 34.6521C160.888 34.5123 160.847 34.3968 160.766 34.3056C160.684 34.2143 160.581 34.1574 160.456 34.134C160.364 34.1172 160.179 34.108 159.901 34.108H159.529ZM166.89 37.2957H166.053L165.722 36.4226H164.184L163.865 37.2957H163.044L164.533 33.4593H165.353L166.889 37.2957H166.89ZM165.471 35.7739L164.938 34.3541L164.42 35.7739H165.471ZM168.811 37.2957V33.4593H169.562L171.141 36.03V33.4593H171.858V37.2957H171.082L169.528 34.7735V37.2957H168.811ZM175.193 37.2957V35.6809L173.787 33.4593H174.695L175.602 34.9786L176.485 33.4593H177.376L175.97 35.686V37.2949H175.194L175.193 37.2957Z" fill="white"/>
<path fill-rule="evenodd" clip-rule="evenodd" d="M13.1804 30.9429C9.43659 30.9429 6.35826 28.1414 5.99752 24.5552C5.98573 24.5479 5.97395 24.5407 5.96216 24.5334V35.2364C8.05613 36.521 10.53 37.2634 13.1804 37.2634C20.7187 37.2634 26.8297 31.2574 26.8297 23.8487C26.8297 21.9465 26.4268 20.1365 25.7003 18.4971C24.5866 15.9838 22.7122 13.871 20.3633 12.4393C18.2767 11.1677 15.8158 10.4337 13.1804 10.4337V16.7545C14.9941 16.7545 16.6513 17.4117 17.9192 18.4971C19.4384 19.7976 20.3986 21.7128 20.3986 23.8487C20.3986 24.0871 20.3865 24.3226 20.3633 24.5549C20.0025 28.1414 16.9242 30.9429 13.1804 30.9429Z" fill="#FF3625"/>
<path fill-rule="evenodd" clip-rule="evenodd" d="M1.10996 18.9616C2.20457 16.4221 4.04678 14.2874 6.35534 12.8407C6.70988 9.21723 9.73534 6.38627 13.4148 6.38627V0.398904V0C12.2965 0 11.21 0.138139 10.1713 0.398904C4.32949 1.86458 0 7.19842 0 13.5543C0 13.5619 0 13.5698 0 13.5777V24.3454C0.00318622 22.432 0.398858 20.6113 1.10996 18.9616Z" fill="white"/>
<path fill-rule="evenodd" clip-rule="evenodd" d="M6.32088 35.2618V24.5479V23.8624C6.32088 21.7246 7.26458 19.8075 8.75775 18.5053C10.0039 17.4189 11.6326 16.761 13.4148 16.761V10.4337C10.8247 10.4337 8.40582 11.1684 6.35534 12.4413C4.0465 13.8745 2.20428 15.9894 1.10996 18.5053C0.398858 20.1398 0.00318622 21.9435 0 23.8392V23.8853V32.9685V36.216V45.7098C3.48949 45.6863 6.31219 42.8517 6.32059 39.3553V39.3393V39.3234V35.2618H6.32088Z" fill="white"/>
</svg>
